<!--
  mariasol — marque de l'application.

  Lecture : le mot se lit « marisol » ; le « i » et le « a » en rouge disent
  l'intelligence artificielle, le « a » étant réduit et remonté pour ne pas
  casser la lecture. Le soleil — SOL — se lève au-dessus de la matrice des
  positions, qui est ce que l'outil produit.

  Couleurs de la charte de l'État : bleu France #000091, rouge Marianne
  #e1000f, blanc. Aucune reprise du bloc-marque officiel ni de la Marianne :
  la forme est propre à l'application.

  Le mot-marque est en tracés vectoriels, pas en texte : le rendu est
  identique sur tout poste, sans dépendre des polices installées.
-->
<svg xmlns="http://www.w3.org/2000/svg" viewBox="0 0 470 148" width="470" height="148" role="img" aria-label="mariasol — logo">
  <rect width="470" height="148" fill="#ffffff"/>
  <rect x="24.0" y="20.0" width="104.0" height="104.0" rx="22.0" fill="#000091"/>
  <circle cx="76.0" cy="53.0" r="14.0" fill="#ffffff"/>
  <line x1="76.0" y1="34.5" x2="76.0" y2="28.5" stroke="#ffffff" stroke-width="3.6" stroke-linecap="round"/>
  <line x1="89.1" y1="39.9" x2="93.3" y2="35.7" stroke="#ffffff" stroke-width="3.6" stroke-linecap="round"/>
  <line x1="94.5" y1="53.0" x2="100.5" y2="53.0" stroke="#ffffff" stroke-width="3.6" stroke-linecap="round"/>
  <line x1="89.1" y1="66.1" x2="93.3" y2="70.3" stroke="#ffffff" stroke-width="3.6" stroke-linecap="round"/>
  <line x1="76.0" y1="71.5" x2="76.0" y2="77.5" stroke="#ffffff" stroke-width="3.6" stroke-linecap="round"/>
  <line x1="62.9" y1="66.1" x2="58.7" y2="70.3" stroke="#ffffff" stroke-width="3.6" stroke-linecap="round"/>
  <line x1="57.5" y1="53.0" x2="51.5" y2="53.0" stroke="#ffffff" stroke-width="3.6" stroke-linecap="round"/>
  <line x1="62.9" y1="39.9" x2="58.7" y2="35.7" stroke="#ffffff" stroke-width="3.6" stroke-linecap="round"/>
  <rect x="46.0" y="80.0" width="16.0" height="11.0" rx="2.5" fill="#ffffff" opacity="0.94"/>
  <rect x="68.0" y="80.0" width="16.0" height="11.0" rx="2.5" fill="#e1000f" opacity="0.94"/>
  <rect x="90.0" y="80.0" width="16.0" height="11.0" rx="2.5" fill="#ffffff" opacity="0.94"/>
  <rect x="46.0" y="96.0" width="16.0" height="11.0" rx="2.5" fill="#ffffff" opacity="0.42"/>
  <rect x="68.0" y="96.0" width="16.0" height="11.0" rx="2.5" fill="#ffffff" opacity="0.94"/>
  <rect x="90.0" y="96.0" width="16.0" height="11.0" rx="2.5" fill="#e1000f" opacity="0.78"/>
  <path d="M180.72,60.28 Q182.45,57.64 184.82,56.26 Q187.20,54.88 190.04,54.88 Q194.94,54.88 197.51,57.90 Q200.07,60.92 200.07,66.69 L200.07,84.00 L190.93,84.00 L190.93,69.17 Q190.96,68.84 190.97,68.49 Q190.98,68.13 190.98,67.47 Q190.98,64.45 190.09,63.09 Q189.20,61.73 187.22,61.73 Q184.64,61.73 183.22,63.87 Q181.82,66.00 181.76,70.03 L181.76,84.00 L172.62,84.00 L172.62,69.17 Q172.62,64.45 171.81,63.09 Q171.00,61.73 168.91,61.73 Q166.30,61.73 164.88,63.87 Q163.46,66.02 163.46,70.01 L163.46,84.00 L154.31,84.00 L154.31,55.56 L163.46,55.56 L163.46,59.72 Q165.14,57.32 167.31,56.10 Q169.48,54.88 172.09,54.88 Q175.03,54.88 177.29,56.30 Q179.56,57.72 180.72,60.28 Z M221.29,71.20 Q218.45,71.20 217.01,72.17 Q215.58,73.13 215.58,75.01 Q215.58,76.74 216.74,77.72 Q217.90,78.69 219.95,78.69 Q222.51,78.69 224.27,76.86 Q226.02,75.01 226.02,72.24 L226.02,71.20 L221.29,71.20 Z M235.19,67.77 L235.19,84.00 L226.02,84.00 L226.02,79.78 Q224.20,82.38 221.90,83.56 Q219.62,84.74 216.35,84.74 Q211.93,84.74 209.17,82.16 Q206.42,79.58 206.42,75.47 Q206.42,70.46 209.85,68.13 Q213.30,65.79 220.66,65.79 L226.02,65.79 L226.02,65.09 Q226.02,62.92 224.32,61.92 Q222.62,60.92 219.01,60.92 Q216.09,60.92 213.58,61.50 Q211.07,62.09 208.90,63.26 L208.90,56.33 Q211.83,55.61 214.77,55.25 Q217.72,54.88 220.66,54.88 Q228.36,54.88 231.77,57.91 Q235.19,60.94 235.19,67.77 Z M264.77,63.31 Q263.58,62.75 262.39,62.48 Q261.21,62.22 260.02,62.22 Q256.51,62.22 254.62,64.47 Q252.73,66.71 252.73,70.89 L252.73,84.00 L243.64,84.00 L243.64,55.56 L252.73,55.56 L252.73,60.23 Q254.48,57.44 256.75,56.16 Q259.03,54.88 262.20,54.88 Q262.66,54.88 263.19,54.92 Q263.72,54.95 264.74,55.08 L264.77,63.31 Z" fill="#000091"/>
  <path d="M269.29,55.56 L278.38,55.56 L278.38,84.00 L269.29,84.00 L269.29,55.56 Z M269.29,44.49 L278.38,44.49 L278.38,51.91 L269.29,51.91 L269.29,44.49 Z" fill="#e1000f"/>
  <path d="M291.65,61.75 Q290.17,61.75 289.42,62.25 Q288.68,62.75 288.68,63.73 Q288.68,64.62 289.28,65.13 Q289.88,65.64 290.95,65.64 Q292.28,65.64 293.19,64.69 Q294.11,63.73 294.11,62.29 L294.11,61.75 L291.65,61.75 Z M298.87,59.96 L298.87,68.40 L294.11,68.40 L294.11,66.21 Q293.16,67.56 291.96,68.17 Q290.78,68.78 289.07,68.78 Q286.78,68.78 285.34,67.45 Q283.91,66.10 283.91,63.96 Q283.91,61.36 285.70,60.15 Q287.49,58.93 291.32,58.93 L294.11,58.93 L294.11,58.56 Q294.11,57.44 293.22,56.92 Q292.34,56.40 290.46,56.40 Q288.94,56.40 287.63,56.70 Q286.33,57.01 285.20,57.61 L285.20,54.01 Q286.73,53.64 288.26,53.45 Q289.79,53.26 291.32,53.26 Q295.32,53.26 297.09,54.83 Q298.87,56.41 298.87,59.96 Z" fill="#e1000f"/>
  <path d="M328.59,56.45 L328.59,63.35 Q325.68,62.14 322.96,61.53 Q320.24,60.92 317.83,60.92 Q315.24,60.92 313.98,61.57 Q312.73,62.22 312.73,63.56 Q312.73,64.65 313.68,65.24 Q314.63,65.82 317.09,66.10 L318.69,66.33 Q325.68,67.21 328.08,69.25 Q330.50,71.28 330.50,75.62 Q330.50,80.17 327.14,82.46 Q323.79,84.74 317.15,84.74 Q314.33,84.74 311.31,84.29 Q308.31,83.85 305.13,82.96 L305.13,76.05 Q307.85,77.37 310.70,78.04 Q313.56,78.69 316.50,78.69 Q319.18,78.69 320.52,77.96 Q321.87,77.22 321.87,75.77 Q321.87,74.55 320.94,73.96 Q320.01,73.36 317.24,73.03 L315.64,72.83 Q309.57,72.06 307.14,70.01 Q304.70,67.95 304.70,63.76 Q304.70,59.24 307.79,57.07 Q310.90,54.88 317.29,54.88 Q319.81,54.88 322.57,55.26 Q325.34,55.64 328.59,56.45 Z M350.86,61.38 Q347.84,61.38 346.25,63.55 Q344.67,65.72 344.67,69.81 Q344.67,73.89 346.25,76.07 Q347.84,78.24 350.86,78.24 Q353.83,78.24 355.40,76.07 Q356.98,73.89 356.98,69.81 Q356.98,65.72 355.40,63.55 Q353.83,61.38 350.86,61.38 Z M350.86,54.88 Q358.20,54.88 362.32,58.84 Q366.45,62.80 366.45,69.81 Q366.45,76.82 362.32,80.78 Q358.20,84.74 350.86,84.74 Q343.50,84.74 339.35,80.78 Q335.19,76.82 335.19,69.81 Q335.19,62.80 339.35,58.84 Q343.50,54.88 350.86,54.88 Z M373.06,44.49 L382.14,44.49 L382.14,84.00 L373.06,84.00 L373.06,44.49 Z" fill="#000091"/>
  <text x="152" y="113" font-family="Marianne, 'DejaVu Sans', 'Segoe UI', Arial, sans-serif" font-size="15" fill="#52514e">Cartographier, comparer, décider</text>
</svg>